<svg xmlns="http://www.w3.org/2000/svg" width="834.285657" height="232.857143" viewBox="0 0 220.73808 61.610119"><path fill="#ffb61b" d="M-2.267857-1.133929h225.65176v65.389877H-2.267857z"/><path d="M117.561814 23.444564c1.238268.007808 2.473383.01896 3.724322.010335l.052192-19.955371-.398426-.409277c-.941795-.968542-1.780217-1.011335-2.785874-.141594l-.30851.267167-.0894 7.9375c-.07254 6.451288-.126042 10.002317-.194304 12.29124z" fill="#2f47dc" stroke="#2f47dc" stroke-width=".09449289493999999"/><path d="M121.200353 56.187784c-.403434-.107469-.80825-.201499-1.211297-.312642-.747887-.206235-1.493507-.433158-2.240171-.650606.174363 3.236995.2238 3.619559.84439 4.030245.716413.474099 1.450473.38346 2.227255-.274918l.373621-.316778.006202-2.475301z" fill="#8694ea" stroke="#8694ea" stroke-width=".09449289493999999"/><path d="M112.505277 53.60913c.789424.25071 1.576872.514081 2.367296.757061.230187-.283684.45248-.526193.697116-.85938.927222-1.26284 1.513321-1.592567 1.868104-1.0511.12292.187609.178453.590715.238744 1.724444.032388.609017.04757.584422.072348 1.044381.746664.217448 1.492284.44437 2.240171.650606.403048.111143.807863.205173 1.211297.312642l.065627-25.106476.020156-7.62641c-1.25094.008625-2.486054-.002526-3.724322-.010334-.07492 2.512376-.167765 3.447537-.32711 3.69073-.312182.47645-.794909.191415-1.600936-.945678-.602826-.85043-1.672828-1.916054-2.703195-2.779159-1.984224-.040225-3.944733-.105485-5.903515-.172082 1.56338.448868 3.047984 1.138327 4.348572 2.105297 1.07119.796415 2.859157 2.595851 3.556887 3.57911 1.36545 1.924213 2.47832 4.85295 2.978113 7.83828.267951 1.600513.24616 4.885166-.04289 6.472992-.449476 2.469054-1.0015 4.182348-1.921848 5.962943-.790974 1.530303-2.068851 3.143446-3.440615 4.412134z" fill="#5b6de3" stroke="#5b6de3" stroke-width=".09449289493999999"/><path d="M88.881396 46.25764c-1.146953-.298209-2.294332-.593245-3.4432-.854728-.074316-.016915-.148918-.028728-.223242-.045474.58234 2.598275 1.505045 4.918975 2.77709 6.853328 2.664383 4.051636 6.705465 6.960327 10.827763 7.793839.409263.08275 1.020239.188322 1.358056.234611.991902.135914 4.452274.053422 5.433777-.129707 2.432585-.453874 4.936644-1.69791 7.16752-3.55999.763162-.636997 1.41645-1.349038 2.093413-2.183328-.790424-.24298-1.577872-.506352-2.367296-.75706-.372817.344802-.750414.677518-1.129647.960146-1.593233 1.187381-3.976623 2.185231-5.953124 2.491838-2.979127.462137-5.927109.093472-8.343678-1.042829-2.598317-1.221763-5.639014-4.205882-7.04143-6.910689-.500044-.964416-.857406-1.898771-1.156002-2.849956z" fill="#8694ea" stroke="#8694ea" stroke-width=".09449289493999999"/><path d="M92.680646 22.654948c-1.439852 1.030273-3.409061 3.023595-4.303096 4.365625-1.137642 1.707702-2.463816 4.553016-2.932636 6.291606-.105109.38979-.295024 1.282758-.422199 1.984375-.571322 3.152005-.616839 5.300697-.173114 8.223787.096025.632579.230407 1.235009.365353 1.837097.074324.016746.148926.02856.223242.045474 1.148868.261483 2.296247.55652 3.4432.854729-.574966-1.83157-.839753-3.76041-.838708-6.330879.000889-2.262116.096724-3.256587.480073-4.997111.829244-3.765031 2.969123-7.242196 5.74797-9.338965 1.176721-.887894 2.092925-1.42626 3.176032-1.866553.842351-.342423 1.714714-.573243 2.594676-.751375-1.521412-.066174-3.052987-.127645-4.565097-.19637-.935908-.042538-1.8626-.07953-2.795696-.12144z" fill="#5b6de3" stroke="#5b6de3" stroke-width=".09449289493999999"/><path d="M92.680646 22.654948c.933095.04191 1.859788.078902 2.795696.12144 1.51211.068725 3.043685.130196 4.565097.19637 2.336652-.473013 4.74437-.377877 6.985619.265617 1.958782.066597 3.919291.131857 5.903515.172082-.182864-.153179-.364545-.344324-.542086-.47904-2.281412-1.731108-4.619048-2.80055-6.871414-3.143995-1.124834-.171526-5.487268-.176804-6.472992-.007751-1.72662.296116-4.427222 1.506811-6.298321 2.8236-.02017.014193-.044728.03709-.065114.051677z" fill="#2f47dc" stroke="#2f47dc" stroke-width=".09449289493999999"/><path d="M70.787571 12.856797c-.647676-.208934-1.176869-.713227-1.41829-1.351558-.172496-.456089-.197763-.678185-.160888-1.414256.061203-1.221798.292952-1.669727 1.063783-2.056117.51625-.258776.64847-.283482 1.517158-.283482.872257 0 .998085.02376 1.508758.28493.756576.386926 1.089488.91567 1.155252 1.834813.092073 1.286852-.410845 2.33969-1.333177 2.790944-.644173.315164-1.68889.402379-2.332596.194726z" fill="#1f34b9"/><path d="M73.432209 43.577184c-.345403-.024072-.689314-.07213-1.03508-.090432-.730011-.03864-1.463494-.022452-2.195213-.034107-.002659 6.98418.003718 14.209712.05116 14.54123.088045.615227.353248 1.062437.813387 1.372526.588087.396308 1.222693.242794 1.968355-.476457l.401526-.387572-.004135-14.925188z" fill="#5b6de3" stroke="#5b6de3" stroke-width=".09449289493999999"/><path d="M70.361079 22.101493c-.016044.225888-.042516.279737-.057878.568958-.066783 1.257432-.097679 11.306054-.101285 20.782194.731719.011655 1.465202-.004533 2.195214.034107.345765.018301.689676.06636 1.035079.090432l-.000516-1.709457c-.002585-9.149196-.040384-17.613145-.083717-18.80867-.017963-.495634-.052205-.611875-.072864-.949812-.97097-.003721-1.941136-.015407-2.914033-.007752z" fill="#2f47dc" stroke="#2f47dc" stroke-width=".09449289493999999"/><path d="M70.361079 22.101493c.972897-.007655 1.943063.00403 2.914033.007752-.080412-1.315377-.194699-1.863257-.61288-2.118217-.425665-.25952-1.239354-.25952-1.665015 0-.422199.257407-.540348.76184-.636138 2.110465z" fill="#1f34b9" stroke="#1f34b9" stroke-width=".09449289493999999"/><path d="M55.954723 44.669625c-.786154.108138-1.672915.192085-2.438093.307475-.293227.044217-.567455.097737-.85783.143142l-.019121 13.77487.452686.284739c.249015.156572.51684.30788.594797.335896.557.20017 1.14123-.016274 1.81901-.673346l.44855-.435115V44.669625z" fill="#2f47dc" stroke="#2f47dc" stroke-width=".09449289493999999"/><path d="M55.954723 22.71541c-.286824.02416-.571056.039351-.858345.065111-.787858.070644-1.582963.165411-2.374533.248564-.0113 3.927472-.03605 2.381787-.044442 8.498707l-.018603 13.59245c.290375-.045405.564603-.098925.85783-.143142.765178-.11539 1.65194-.199337 2.438093-.307475V22.715409z" fill="#1f34b9" stroke="#1f34b9" stroke-width=".09449289493999999"/><path d="M52.721845 23.029085c.79157-.083153 1.586675-.17792 2.374533-.248564.28729-.02576.57152-.040952.858345-.065112V3.49281l-.496094-.487825c-.539334-.530083-.849222-.68678-1.357021-.68678-.717984 0-1.12667.394818-1.277443 1.23455-.055912.311395-.07642 10.475813-.10232 19.47633zM14.430644 59.063061c1.414135-.84038 2.807302-1.651571 4.157885-2.396752.054733-.0302.106074-.054186.160714-.084233-3.809269-.743018-7.033524-2.362972-10.561112-5.40639C6.79339 49.972378 6.264664 49.6595 5.626013 49.6595c-.577516 0-.934912.24381-1.37511.93793-.346006.545586-.340328.904231.023255 1.453138.899316 1.357723 4.932916 4.535445 7.26829 5.72575 1.12714.574485 2.020093.961819 2.888196 1.286743z" fill="#18288d" stroke="#18288d" stroke-width=".09449289493999999"/><path d="M40.453344 47.64722c-.102674.027696-.208555.049479-.311092.077514-1.202261.328737-2.392757.694693-3.582728 1.073838-.13644.731557-.33572 1.396796-.61288 1.947685-1.21861 2.422089-3.667054 4.368057-6.776848 5.38675-2.642687.86568-6.411488 1.126289-9.500713.656291-.31993-.048675-.60859-.146513-.91984-.207222-.05464.030047-.105981.054034-.160714.084233-1.350583.74518-2.74375 1.556372-4.157885 2.396752 1.555889.582359 3.009353.88795 5.427575 1.168921 2.055159.23879 3.649452.241668 5.669421.010335 3.21197-.367848 4.938482-.852376 7.289477-2.04587 4.616365-2.343523 7.165382-5.892675 7.636227-10.549228z" fill="#1f34b9" stroke="#1f34b9" stroke-width=".09449289493999999"/><path d="M22.079272 29.741336c-.119054.040785-.235296.074044-.3545.11524-1.674093.578526-3.362855 1.197466-5.067908 1.859316-.033625.013055-.068164.028774-.101802.04186.205363.085063.355726.17936.56999.263549.897893.35279 5.95437 2.078548 8.969479 3.06131 1.366832.445512 3.73457 1.544186 5.096846 2.364714 1.658628.99903 3.358838 2.489978 4.150135 3.64009.862899 1.254178 1.294249 2.73372 1.397847 4.792472.053207 1.057339-.015661 2.038432-.179835 2.918685 1.189971-.379145 2.380467-.745101 3.582728-1.073838.102537-.028035.208418-.049818.311092-.077515.052612-.520324.098544-1.044543.098703-1.592667.000592-2.158037-.387972-4.019828-1.231966-5.90093-1.033627-2.30376-4.00625-5.099125-7.061584-6.641455-1.104175-.557385-3.486885-1.451605-7.250205-2.720247-1.15603-.389708-1.969791-.705017-2.92902-1.050584z" fill="#18288d" stroke="#18288d" stroke-width=".09449289493999999"/><path d="M16.555062 31.757752c.033638-.013086.068177-.028805.101802-.04186 1.705053-.66185 3.393815-1.28079 5.067908-1.859317.119204-.041195.235446-.074454.3545-.11524-6.152074-2.2163-8.746752-3.707255-10.541475-6.089032-1.087128-1.44273-1.344058-2.166985-1.508952-4.25297-.286022-3.618315.448154-5.70548 2.768307-7.872905.965374-.90183 1.929941-1.4998 3.518648-2.181779 2.461104-1.056473 3.64678-1.222556 8.125085-1.138432 2.933332.0551 3.207888.094151 5.086511.731739 2.621114.889582 5.174846 2.39195 7.113778 4.18424.784863.725504 1.12717.913135 1.66243.912606.489112-.000423.90007-.232615 1.269175-.716752.56578-.742109.26009-1.630586-1.043866-3.033923-1.802014-1.939351-4.359749-3.504296-7.29051-4.460193-2.845648-.928137-4.323394-1.09851-8.875944-1.022677-2.16597.036079-3.132012.089348-3.70675.203606-1.984936.394594-5.32758 1.832019-6.967534 2.996199-1.695257 1.203444-3.260047 2.971721-4.134114 4.672066-.950746 1.84952-1.259249 3.527734-1.179773 6.417696.069599 2.530822.333227 3.791228 1.126546 5.386235.738857 1.485505 1.934794 2.890007 3.582727 4.208013 1.487353 1.189572 3.25681 2.155314 5.4715 3.07268z" fill="#0c1344" stroke="#0c1344" stroke-width=".09449289493999999"/><path d="M189.25563 53.244294c.903177-.174122 1.808174-.34521 2.70991-.518832.257538-.049585.510535-.095207.767914-.144692-.001199-.001212-.002418-.00189-.00362-.003101-1.46613-1.483125-1.863682-1.784387-2.35696-1.784387-.463844 0-1.245693.402217-1.447973.744656-.22415.379458-.204237.72384.077513 1.329119.05158.110807.18138.257402.253216.377237z" fill="#b2bbf2" stroke="#b2bbf2" stroke-width=".09449289493999999"/><path d="M217.575863 48.400147c-1.042715.135284-2.074696.256756-3.131074.409276.030406.235659.067696.456694.083717.726053.13244 2.226842-.512228 3.931481-2.047939 5.41569-1.376203 1.33005-3.153812 2.070722-5.812046 2.42156-1.589527.209788-4.620824.132172-5.953644-.152448-3.058551-.65314-5.36553-1.994204-7.981423-4.639508-.257379.049485-.510376.095107-.767913.144692-.901737.173622-1.806734.34471-2.70991.518832.387913.647116 1.00616 1.3983 2.025713 2.357996 1.828099 1.720768 3.453741 2.710661 5.762958 3.50883 1.296575.448157 3.437684 1.02982 4.189923 1.13843.746776.107821 4.869109.003771 6.099371-.153995 2.10126-.26946 4.438367-1.172456 6.185151-2.389518.807805-.562832 1.998089-1.7154 2.503207-2.424142 1.375992-1.93068 1.873055-4.322355 1.553909-6.881748z" fill="#cfd4f7" stroke="#cfd4f7" stroke-width=".09449289493999999"/><path d="M190.981621 32.552534c.377902 1.475568 1.129544 2.605095 2.808097 4.208528 2.127793 2.032561 3.783298 2.782573 10.842234 4.911328 3.491264 1.052857 3.997684 1.236512 5.53196 2.007114 1.18772.596537 2.107772 1.255572 2.856157 2.046388.862853.911778 1.256376 1.778828 1.42472 3.08353 1.056378-.152519 2.088359-.273991 3.131074-.409275-.061762-.495303-.103317-.98677-.230476-1.493449-.380839-1.5175-.893133-2.485448-1.877923-3.54914-1.825543-1.971801-4.648305-3.330312-10.169921-4.89479-5.418805-1.535349-8.101518-2.802912-9.812838-4.635377-.21322-.228311-.374113-.453546-.541567-.679545-.724755-.099086-1.446361-.168164-2.172478-.280601-.594945-.092128-1.19324-.21444-1.789039-.314711z" fill="#b2bbf2" stroke="#b2bbf2" stroke-width=".09449289493999999"/><path d="M190.981621 32.552534c.5958.100272 1.194094.222583 1.789039.314711.726117.112437 1.447723.181515 2.172478.280601-.789525-1.06555-1.113899-2.145424-1.055751-3.615798.050352-1.273202.266824-1.948524.97565-3.044259 1.093365-1.69017 3.232354-3.172536 5.331976-3.695382 2.172621-.541023 6.444925-.363877 8.327139.345199 1.61659.609007 3.792739 1.915639 5.186249 3.114021.762005.655304 1.345906 1.01287 1.651576 1.012341.465077-.000862 1.372577-.901444 1.37046-1.360123-.00049-.109138-.125132-.41531-.276984-.680062-1.007497-1.756548-3.957712-3.792526-7.021796-4.846216-1.609087-.553341-2.388505-.678473-4.606435-.738973-3.918239-.10688-5.856237.243372-8.377267 1.514637-2.47269 1.24689-4.973534 4.295008-5.47977 6.678144-.220262 1.037328-.22173 3.793307-.002066 4.67465.00406.016285.011354.030311.015502.046509z" fill="#8694ea" stroke="#8694ea" stroke-width=".09449289493999999"/><path d="M173.226117 28.809611c1.09294.256466 2.184966.505457 3.276803.758092.003183-2.126218.021186-2.548385.021186-5.61051 0-9.017094-.034605-16.637115-.076997-16.933332-.142838-.99811-.672293-1.509802-1.624708-1.570447-1.023004-.06514-1.181934.161696-1.379244 1.967322-.06025.55137-.128905 6.985557-.177766 16.678051-.012432 2.46613-.027678 2.888218-.039274 4.710824z" fill="#5b6de3" stroke="#5b6de3" stroke-width=".09449289493999999"/><path d="M167.141735 57.167052c-2.019922.309007-4.055576.644593-6.042525.898136-1.668429.2129-3.323903.403886-4.963007.56896-1.639102.16507-3.262138.304641-4.866367.413927-.605383.04124-1.193819.055851-1.79369.088366 1.463212.604779 2.486562.864388 4.001307.997873 2.173422.191532 5.264359.09135 7.219196-.234095 1.864645-.310433 4.096768-1.224325 6.146395-2.516643.100039-.063077.19857-.15053.29869-.216524z" fill="#b2bbf2" stroke="#b2bbf2" stroke-width=".09449289493999999"/><path d="M138.785326 23.039937c-.834218-.021963-1.664354.029499-2.497005.03514.066815 12.761613.166883 20.053054.317293 21.103621.152824 1.06743.880555 3.144592 1.64796 4.704107 1.08727 2.209548 2.212827 3.787814 3.92276 5.499923 1.626442 1.628515 4.262049 3.597513 5.299932 3.959447.280813.097927 1.14368.442489 1.917198.765844.030816.012883.05226.015849.082682.028422.599871-.032515 1.188307-.047125 1.79369-.088366 1.60423-.109286 3.227265-.248856 4.866367-.413927 1.639104-.165074 3.294578-.35606 4.963007-.56896 1.986949-.253543 4.022603-.58913 6.042525-.898136 2.626373-1.73117 5.25977-4.420749 6.728269-6.926191 1.045877-1.784395 1.937673-4.115568 2.227255-5.8229.337264-1.988463.390932-5.012703.405661-14.850258-1.091837-.252635-2.183863-.501626-3.276803-.758092-.059622 9.370539-.11934 12.687138-.344165 14.352095-.742064 5.495417-5.517171 11.051879-11.055138 12.863814-3.649591 1.194091-7.045121 1.182082-10.702708-.037724-2.252345-.751158-3.936153-1.828385-6.044076-3.86643-2.036267-1.96877-2.910533-3.165573-3.848859-5.268413-.825968-1.851033-1.0605-3.059803-1.233517-6.3593-.06177-1.178023-.135866-8.399671-.181385-17.390154-.343207-.013454-.687982-.054533-1.030943-.063562z" fill="#8694ea" stroke="#8694ea" stroke-width=".09449289493999999"/><path d="M136.28832 23.075077c.832652-.005641 1.662788-.057103 2.497006-.03514.34296.00903.687736.050107 1.030943.063562-.000608-.12049-.001984-.111898-.002582-.23306-.05208-10.525342-.110045-15.739479-.1788-16.047083-.130672-.584607-.40516-.965816-.865063-1.200444-.747821-.38151-1.422921-.195974-2.1115.580327l-.451135.508496.061494 13.8436c.004882 1.103724.014274 1.495452.019638 2.519742z" fill="#5b6de3" stroke="#5b6de3" stroke-width=".09449289493999999"/></svg>